<mxfile host="65bd71144e">
    <diagram id="4PQOECBpvDl6KpExRl-B" name="Page-1">
        <mxGraphModel dx="387" dy="536" grid="1" gridSize="10" guides="1" tooltips="1" connect="1" arrows="1" fold="1" page="1" pageScale="1" pageWidth="1600" pageHeight="900" math="0" shadow="0">
            <root>
                <mxCell id="0"/>
                <mxCell id="1" parent="0"/>
                <mxCell id="13" value="" style="labelPosition=center;verticalLabelPosition=middle;align=center;html=1;shape=mxgraph.basic.shaded_button;dx=10;fillColor=#FFCCE6;strokeColor=none;whiteSpace=wrap;labelBackgroundColor=default;fontColor=default;gradientColor=#D80073;" vertex="1" parent="1">
                    <mxGeometry x="40" y="190" width="260" height="260" as="geometry"/>
                </mxCell>
                <mxCell id="15" value="" style="shape=mxgraph.signs.animals.teddy_bear;html=1;pointerEvents=1;fillColor=#000000;strokeColor=none;verticalLabelPosition=bottom;verticalAlign=top;align=center;sketch=0;labelBackgroundColor=default;fontColor=default;" vertex="1" parent="1">
                    <mxGeometry x="90" y="215" width="160" height="210" as="geometry"/>
                </mxCell>
            </root>
        </mxGraphModel>
    </diagram>
</mxfile>